<svg width="100" height="95" viewBox="0 0 100 95" fill="none" xmlns="http://www.w3.org/2000/svg">
<g filter="url(#filter0_d_29_253)">
<path d="M50 0C24.585 0 4 19.9586 4 44.6003C4 64.3359 17.1675 81.0053 35.4525 86.9148C37.7525 87.3051 38.615 85.967 38.615 84.7963C38.615 83.737 38.5575 80.2248 38.5575 76.4895C27 78.5522 24.01 73.7577 23.09 71.2489C22.5725 69.9667 20.33 66.0084 18.375 64.9492C16.765 64.1129 14.465 62.0501 18.3175 61.9944C21.94 61.9386 24.5275 65.2279 25.39 66.5659C29.53 73.3117 36.1425 71.4162 38.7875 70.2454C39.19 67.3464 40.3975 65.3952 41.72 64.2802C31.485 63.1651 20.79 59.3184 20.79 42.2588C20.79 37.4085 22.5725 33.3945 25.505 30.2724C25.045 29.1574 23.435 24.5859 25.965 18.4534C25.965 18.4534 29.8175 17.2826 38.615 23.0249C42.295 22.0214 46.205 21.5196 50.115 21.5196C54.025 21.5196 57.935 22.0214 61.615 23.0249C70.4125 17.2269 74.265 18.4534 74.265 18.4534C76.795 24.5859 75.185 29.1574 74.725 30.2724C77.6575 33.3945 79.44 37.3527 79.44 42.2588C79.44 59.3741 68.6875 63.1651 58.4525 64.2802C60.12 65.6739 61.5575 68.3499 61.5575 72.5312C61.5575 78.4965 61.5 83.291 61.5 84.7963C61.5 85.967 62.3625 87.3608 64.6625 86.9148C73.7948 83.9265 81.7305 78.2364 87.3521 70.6455C92.9738 63.0546 95.9984 53.9454 96 44.6003C96 19.9586 75.415 0 50 0Z" fill="white"/>
</g>
<defs>
<filter id="filter0_d_29_253" x="0" y="0" width="100" height="95" filterUnits="userSpaceOnUse" color-interpolation-filters="sRGB">
<feFlood flood-opacity="0" result="BackgroundImageFix"/>
<feColorMatrix in="SourceAlpha" type="matrix" values="0 0 0 0 0 0 0 0 0 0 0 0 0 0 0 0 0 0 127 0" result="hardAlpha"/>
<feOffset dy="4"/>
<feGaussianBlur stdDeviation="2"/>
<feComposite in2="hardAlpha" operator="out"/>
<feColorMatrix type="matrix" values="0 0 0 0 0 0 0 0 0 0 0 0 0 0 0 0 0 0 0.25 0"/>
<feBlend mode="normal" in2="BackgroundImageFix" result="effect1_dropShadow_29_253"/>
<feBlend mode="normal" in="SourceGraphic" in2="effect1_dropShadow_29_253" result="shape"/>
</filter>
</defs>
</svg>
